<svg xmlns="http://www.w3.org/2000/svg" xmlns:xlink="http://www.w3.org/1999/xlink" width="15" height="24" viewBox="0 0 15 24">
    <defs>
        <path id="a" d="M0 .345v23.421h14.968V.345z"/>
    </defs>
    <g fill="none" fill-rule="evenodd">
        <g>
            <mask id="b" fill="#fff">
                <use xlink:href="#a"/>
            </mask>
            <path fill="#FF4D16" d="M14.912 6.777c-.311-2.524-2.08-4.79-4.412-5.803a7.429 7.429 0 0 0-3.015-.63c-1.301 0-2.602.318-3.735.96C1.718 2.454.28 4.619.04 6.945c-.222 2.164.533 4.304 1.318 6.337.905 2.331 6.12 10.484 6.12 10.484s5.252-8.237 6.163-10.604c.786-2.05 1.541-4.209 1.271-6.385" mask="url(#b)"/>
        </g>
        <path fill="#FFF" d="M6.213 12.055h-2.37V4.303h7.283v7.752h-2.37V6.672H6.212z"/>
    </g>
</svg>
